<?xml version="1.0" encoding="utf-8" standalone="no"?>
<!DOCTYPE svg PUBLIC "-//W3C//DTD SVG 1.1//EN"
  "http://www.w3.org/Graphics/SVG/1.1/DTD/svg11.dtd">
<svg xmlns:xlink="http://www.w3.org/1999/xlink" width="432pt" height="360pt" viewBox="0 0 432 360" xmlns="http://www.w3.org/2000/svg" version="1.1">
 <metadata>
  <rdf:RDF xmlns:dc="http://purl.org/dc/elements/1.1/" xmlns:cc="http://creativecommons.org/ns#" xmlns:rdf="http://www.w3.org/1999/02/22-rdf-syntax-ns#">
   <cc:Work>
    <dc:type rdf:resource="http://purl.org/dc/dcmitype/StillImage"/>
    <dc:date>2025-09-21T13:52:52.985688</dc:date>
    <dc:format>image/svg+xml</dc:format>
    <dc:creator>
     <cc:Agent>
      <dc:title>Matplotlib v3.10.6, https://matplotlib.org/</dc:title>
     </cc:Agent>
    </dc:creator>
   </cc:Work>
  </rdf:RDF>
 </metadata>
 <defs>
  <style type="text/css">*{stroke-linejoin: round; stroke-linecap: butt}</style>
 </defs>
 <g id="figure_1">
  <g id="patch_1">
   <path d="M 0 360 
L 432 360 
L 432 0 
L 0 0 
z
" style="fill: #ffffff"/>
  </g>
  <g id="axes_1">
   <g id="LineCollection_1">
    <path d="M 185.649311 31.239669 
L 217.645042 179.787703 
" clip-path="url(#pb2f1a21b46)" style="fill: none; stroke: #808080"/>
    <path d="M 394.512397 155.525621 
L 217.645042 179.787703 
" clip-path="url(#pb2f1a21b46)" style="fill: none; stroke: #808080"/>
    <path d="M 78.738204 276.687099 
L 217.645042 179.787703 
" clip-path="url(#pb2f1a21b46)" style="fill: none; stroke: #808080"/>
    <path d="M 46.086535 128.922526 
L 217.645042 179.787703 
" clip-path="url(#pb2f1a21b46)" style="fill: none; stroke: #808080"/>
    <path d="M 360.476039 82.397483 
L 217.645042 179.787703 
" clip-path="url(#pb2f1a21b46)" style="fill: none; stroke: #808080"/>
    <path d="M 98.255379 63.461258 
L 217.645042 179.787703 
" clip-path="url(#pb2f1a21b46)" style="fill: none; stroke: #808080"/>
    <path d="M 388.199927 233.41693 
L 217.645042 179.787703 
" clip-path="url(#pb2f1a21b46)" style="fill: none; stroke: #808080"/>
    <path d="M 153.548712 328.760331 
L 217.645042 179.787703 
" clip-path="url(#pb2f1a21b46)" style="fill: none; stroke: #808080"/>
    <path d="M 37.487603 206.491035 
L 217.645042 179.787703 
" clip-path="url(#pb2f1a21b46)" style="fill: none; stroke: #808080"/>
    <path d="M 244.865204 312.570538 
L 217.645042 179.787703 
" clip-path="url(#pb2f1a21b46)" style="fill: none; stroke: #808080"/>
    <path d="M 336.689126 302.860952 
L 217.645042 179.787703 
" clip-path="url(#pb2f1a21b46)" style="fill: none; stroke: #808080"/>
    <path d="M 217.645042 179.787703 
L 279.802715 40.536921 
" clip-path="url(#pb2f1a21b46)" style="fill: none; stroke: #808080"/>
   </g>
   <g id="PathCollection_1">
    <defs>
     <path id="C0_0_3f3f2d38e9" d="M 0 17.320508 
C 4.593452 17.320508 8.999387 15.49551 12.247449 12.247449 
C 15.49551 8.999387 17.320508 4.593452 17.320508 -0 
C 17.320508 -4.593452 15.49551 -8.999387 12.247449 -12.247449 
C 8.999387 -15.49551 4.593452 -17.320508 0 -17.320508 
C -4.593452 -17.320508 -8.999387 -15.49551 -12.247449 -12.247449 
C -15.49551 -8.999387 -17.320508 -4.593452 -17.320508 0 
C -17.320508 4.593452 -15.49551 8.999387 -12.247449 12.247449 
C -8.999387 15.49551 -4.593452 17.320508 0 17.320508 
z
"/>
    </defs>
    <g clip-path="url(#pb2f1a21b46)">
     <use xlink:href="#C0_0_3f3f2d38e9" x="185.649311" y="31.239669" style="fill: #87ceeb; stroke: #87ceeb"/>
    </g>
    <g clip-path="url(#pb2f1a21b46)">
     <use xlink:href="#C0_0_3f3f2d38e9" x="394.512397" y="155.525621" style="fill: #87ceeb; stroke: #87ceeb"/>
    </g>
    <g clip-path="url(#pb2f1a21b46)">
     <use xlink:href="#C0_0_3f3f2d38e9" x="78.738204" y="276.687099" style="fill: #87ceeb; stroke: #87ceeb"/>
    </g>
    <g clip-path="url(#pb2f1a21b46)">
     <use xlink:href="#C0_0_3f3f2d38e9" x="46.086535" y="128.922526" style="fill: #87ceeb; stroke: #87ceeb"/>
    </g>
    <g clip-path="url(#pb2f1a21b46)">
     <use xlink:href="#C0_0_3f3f2d38e9" x="360.476039" y="82.397483" style="fill: #87ceeb; stroke: #87ceeb"/>
    </g>
    <g clip-path="url(#pb2f1a21b46)">
     <use xlink:href="#C0_0_3f3f2d38e9" x="98.255379" y="63.461258" style="fill: #87ceeb; stroke: #87ceeb"/>
    </g>
    <g clip-path="url(#pb2f1a21b46)">
     <use xlink:href="#C0_0_3f3f2d38e9" x="388.199927" y="233.41693" style="fill: #87ceeb; stroke: #87ceeb"/>
    </g>
    <g clip-path="url(#pb2f1a21b46)">
     <use xlink:href="#C0_0_3f3f2d38e9" x="153.548712" y="328.760331" style="fill: #87ceeb; stroke: #87ceeb"/>
    </g>
    <g clip-path="url(#pb2f1a21b46)">
     <use xlink:href="#C0_0_3f3f2d38e9" x="37.487603" y="206.491035" style="fill: #87ceeb; stroke: #87ceeb"/>
    </g>
    <g clip-path="url(#pb2f1a21b46)">
     <use xlink:href="#C0_0_3f3f2d38e9" x="244.865204" y="312.570538" style="fill: #87ceeb; stroke: #87ceeb"/>
    </g>
    <g clip-path="url(#pb2f1a21b46)">
     <use xlink:href="#C0_0_3f3f2d38e9" x="336.689126" y="302.860952" style="fill: #87ceeb; stroke: #87ceeb"/>
    </g>
    <g clip-path="url(#pb2f1a21b46)">
     <use xlink:href="#C0_0_3f3f2d38e9" x="217.645042" y="179.787703" style="fill: #90ee90; stroke: #90ee90"/>
    </g>
    <g clip-path="url(#pb2f1a21b46)">
     <use xlink:href="#C0_0_3f3f2d38e9" x="279.802715" y="40.536921" style="fill: #87ceeb; stroke: #87ceeb"/>
    </g>
   </g>
   <g id="text_1">
    <g clip-path="url(#pb2f1a21b46)">
     <!-- Bacurau -->
     <g transform="translate(162.541498 33.999044) scale(0.1 -0.1)">
      <defs>
       <path id="DejaVuSans-Bold-42" d="M 2456 2859 
Q 2741 2859 2887 2984 
Q 3034 3109 3034 3353 
Q 3034 3594 2887 3720 
Q 2741 3847 2456 3847 
L 1791 3847 
L 1791 2859 
L 2456 2859 
z
M 2497 819 
Q 2859 819 3042 972 
Q 3225 1125 3225 1434 
Q 3225 1738 3044 1889 
Q 2863 2041 2497 2041 
L 1791 2041 
L 1791 819 
L 2497 819 
z
M 3616 2497 
Q 4003 2384 4215 2081 
Q 4428 1778 4428 1338 
Q 4428 663 3972 331 
Q 3516 0 2584 0 
L 588 0 
L 588 4666 
L 2394 4666 
Q 3366 4666 3802 4372 
Q 4238 4078 4238 3431 
Q 4238 3091 4078 2852 
Q 3919 2613 3616 2497 
z
" transform="scale(0.015625)"/>
       <path id="DejaVuSans-Bold-61" d="M 2106 1575 
Q 1756 1575 1579 1456 
Q 1403 1338 1403 1106 
Q 1403 894 1545 773 
Q 1688 653 1941 653 
Q 2256 653 2472 879 
Q 2688 1106 2688 1447 
L 2688 1575 
L 2106 1575 
z
M 3816 1997 
L 3816 0 
L 2688 0 
L 2688 519 
Q 2463 200 2181 54 
Q 1900 -91 1497 -91 
Q 953 -91 614 226 
Q 275 544 275 1050 
Q 275 1666 698 1953 
Q 1122 2241 2028 2241 
L 2688 2241 
L 2688 2328 
Q 2688 2594 2478 2717 
Q 2269 2841 1825 2841 
Q 1466 2841 1156 2769 
Q 847 2697 581 2553 
L 581 3406 
Q 941 3494 1303 3539 
Q 1666 3584 2028 3584 
Q 2975 3584 3395 3211 
Q 3816 2838 3816 1997 
z
" transform="scale(0.015625)"/>
       <path id="DejaVuSans-Bold-63" d="M 3366 3391 
L 3366 2478 
Q 3138 2634 2908 2709 
Q 2678 2784 2431 2784 
Q 1963 2784 1702 2511 
Q 1441 2238 1441 1747 
Q 1441 1256 1702 982 
Q 1963 709 2431 709 
Q 2694 709 2930 787 
Q 3166 866 3366 1019 
L 3366 103 
Q 3103 6 2833 -42 
Q 2563 -91 2291 -91 
Q 1344 -91 809 395 
Q 275 881 275 1747 
Q 275 2613 809 3098 
Q 1344 3584 2291 3584 
Q 2566 3584 2833 3536 
Q 3100 3488 3366 3391 
z
" transform="scale(0.015625)"/>
       <path id="DejaVuSans-Bold-75" d="M 500 1363 
L 500 3500 
L 1625 3500 
L 1625 3150 
Q 1625 2866 1622 2436 
Q 1619 2006 1619 1863 
Q 1619 1441 1641 1255 
Q 1663 1069 1716 984 
Q 1784 875 1895 815 
Q 2006 756 2150 756 
Q 2500 756 2700 1025 
Q 2900 1294 2900 1772 
L 2900 3500 
L 4019 3500 
L 4019 0 
L 2900 0 
L 2900 506 
Q 2647 200 2364 54 
Q 2081 -91 1741 -91 
Q 1134 -91 817 281 
Q 500 653 500 1363 
z
" transform="scale(0.015625)"/>
       <path id="DejaVuSans-Bold-72" d="M 3138 2547 
Q 2991 2616 2845 2648 
Q 2700 2681 2553 2681 
Q 2122 2681 1889 2404 
Q 1656 2128 1656 1613 
L 1656 0 
L 538 0 
L 538 3500 
L 1656 3500 
L 1656 2925 
Q 1872 3269 2151 3426 
Q 2431 3584 2822 3584 
Q 2878 3584 2943 3579 
Q 3009 3575 3134 3559 
L 3138 2547 
z
" transform="scale(0.015625)"/>
      </defs>
      <use xlink:href="#DejaVuSans-Bold-42"/>
      <use xlink:href="#DejaVuSans-Bold-61" transform="translate(76.220703 0)"/>
      <use xlink:href="#DejaVuSans-Bold-63" transform="translate(143.701172 0)"/>
      <use xlink:href="#DejaVuSans-Bold-75" transform="translate(202.978516 0)"/>
      <use xlink:href="#DejaVuSans-Bold-72" transform="translate(274.169922 0)"/>
      <use xlink:href="#DejaVuSans-Bold-61" transform="translate(323.486328 0)"/>
      <use xlink:href="#DejaVuSans-Bold-75" transform="translate(390.966797 0)"/>
     </g>
    </g>
   </g>
   <g id="text_2">
    <g clip-path="url(#pb2f1a21b46)">
     <!-- Deslembro -->
     <g transform="translate(364.199115 158.284996) scale(0.1 -0.1)">
      <defs>
       <path id="DejaVuSans-Bold-44" d="M 1791 3756 
L 1791 909 
L 2222 909 
Q 2959 909 3348 1275 
Q 3738 1641 3738 2338 
Q 3738 3031 3350 3393 
Q 2963 3756 2222 3756 
L 1791 3756 
z
M 588 4666 
L 1856 4666 
Q 2919 4666 3439 4514 
Q 3959 4363 4331 4000 
Q 4659 3684 4818 3271 
Q 4978 2859 4978 2338 
Q 4978 1809 4818 1395 
Q 4659 981 4331 666 
Q 3956 303 3431 151 
Q 2906 0 1856 0 
L 588 0 
L 588 4666 
z
" transform="scale(0.015625)"/>
       <path id="DejaVuSans-Bold-65" d="M 4031 1759 
L 4031 1441 
L 1416 1441 
Q 1456 1047 1700 850 
Q 1944 653 2381 653 
Q 2734 653 3104 758 
Q 3475 863 3866 1075 
L 3866 213 
Q 3469 63 3072 -14 
Q 2675 -91 2278 -91 
Q 1328 -91 801 392 
Q 275 875 275 1747 
Q 275 2603 792 3093 
Q 1309 3584 2216 3584 
Q 3041 3584 3536 3087 
Q 4031 2591 4031 1759 
z
M 2881 2131 
Q 2881 2450 2695 2645 
Q 2509 2841 2209 2841 
Q 1884 2841 1681 2658 
Q 1478 2475 1428 2131 
L 2881 2131 
z
" transform="scale(0.015625)"/>
       <path id="DejaVuSans-Bold-73" d="M 3272 3391 
L 3272 2541 
Q 2913 2691 2578 2766 
Q 2244 2841 1947 2841 
Q 1628 2841 1473 2761 
Q 1319 2681 1319 2516 
Q 1319 2381 1436 2309 
Q 1553 2238 1856 2203 
L 2053 2175 
Q 2913 2066 3209 1816 
Q 3506 1566 3506 1031 
Q 3506 472 3093 190 
Q 2681 -91 1863 -91 
Q 1516 -91 1145 -36 
Q 775 19 384 128 
L 384 978 
Q 719 816 1070 734 
Q 1422 653 1784 653 
Q 2113 653 2278 743 
Q 2444 834 2444 1013 
Q 2444 1163 2330 1236 
Q 2216 1309 1875 1350 
L 1678 1375 
Q 931 1469 631 1722 
Q 331 1975 331 2491 
Q 331 3047 712 3315 
Q 1094 3584 1881 3584 
Q 2191 3584 2531 3537 
Q 2872 3491 3272 3391 
z
" transform="scale(0.015625)"/>
       <path id="DejaVuSans-Bold-6c" d="M 538 4863 
L 1656 4863 
L 1656 0 
L 538 0 
L 538 4863 
z
" transform="scale(0.015625)"/>
       <path id="DejaVuSans-Bold-6d" d="M 3781 2919 
Q 3994 3244 4286 3414 
Q 4578 3584 4928 3584 
Q 5531 3584 5847 3212 
Q 6163 2841 6163 2131 
L 6163 0 
L 5038 0 
L 5038 1825 
Q 5041 1866 5042 1909 
Q 5044 1953 5044 2034 
Q 5044 2406 4934 2573 
Q 4825 2741 4581 2741 
Q 4263 2741 4089 2478 
Q 3916 2216 3909 1719 
L 3909 0 
L 2784 0 
L 2784 1825 
Q 2784 2406 2684 2573 
Q 2584 2741 2328 2741 
Q 2006 2741 1831 2477 
Q 1656 2213 1656 1722 
L 1656 0 
L 531 0 
L 531 3500 
L 1656 3500 
L 1656 2988 
Q 1863 3284 2130 3434 
Q 2397 3584 2719 3584 
Q 3081 3584 3359 3409 
Q 3638 3234 3781 2919 
z
" transform="scale(0.015625)"/>
       <path id="DejaVuSans-Bold-62" d="M 2400 722 
Q 2759 722 2948 984 
Q 3138 1247 3138 1747 
Q 3138 2247 2948 2509 
Q 2759 2772 2400 2772 
Q 2041 2772 1848 2508 
Q 1656 2244 1656 1747 
Q 1656 1250 1848 986 
Q 2041 722 2400 722 
z
M 1656 2988 
Q 1888 3294 2169 3439 
Q 2450 3584 2816 3584 
Q 3463 3584 3878 3070 
Q 4294 2556 4294 1747 
Q 4294 938 3878 423 
Q 3463 -91 2816 -91 
Q 2450 -91 2169 54 
Q 1888 200 1656 506 
L 1656 0 
L 538 0 
L 538 4863 
L 1656 4863 
L 1656 2988 
z
" transform="scale(0.015625)"/>
       <path id="DejaVuSans-Bold-6f" d="M 2203 2784 
Q 1831 2784 1636 2517 
Q 1441 2250 1441 1747 
Q 1441 1244 1636 976 
Q 1831 709 2203 709 
Q 2569 709 2762 976 
Q 2956 1244 2956 1747 
Q 2956 2250 2762 2517 
Q 2569 2784 2203 2784 
z
M 2203 3584 
Q 3106 3584 3614 3096 
Q 4122 2609 4122 1747 
Q 4122 884 3614 396 
Q 3106 -91 2203 -91 
Q 1297 -91 786 396 
Q 275 884 275 1747 
Q 275 2609 786 3096 
Q 1297 3584 2203 3584 
z
" transform="scale(0.015625)"/>
      </defs>
      <use xlink:href="#DejaVuSans-Bold-44"/>
      <use xlink:href="#DejaVuSans-Bold-65" transform="translate(83.007812 0)"/>
      <use xlink:href="#DejaVuSans-Bold-73" transform="translate(150.830078 0)"/>
      <use xlink:href="#DejaVuSans-Bold-6c" transform="translate(210.351562 0)"/>
      <use xlink:href="#DejaVuSans-Bold-65" transform="translate(244.628906 0)"/>
      <use xlink:href="#DejaVuSans-Bold-6d" transform="translate(312.451172 0)"/>
      <use xlink:href="#DejaVuSans-Bold-62" transform="translate(416.650391 0)"/>
      <use xlink:href="#DejaVuSans-Bold-72" transform="translate(488.232422 0)"/>
      <use xlink:href="#DejaVuSans-Bold-6f" transform="translate(537.548828 0)"/>
     </g>
    </g>
   </g>
   <g id="text_3">
    <g clip-path="url(#pb2f1a21b46)">
     <!-- Legalidade -->
     <g transform="translate(47.856173 279.407411) scale(0.1 -0.1)">
      <defs>
       <path id="DejaVuSans-Bold-4c" d="M 588 4666 
L 1791 4666 
L 1791 909 
L 3903 909 
L 3903 0 
L 588 0 
L 588 4666 
z
" transform="scale(0.015625)"/>
       <path id="DejaVuSans-Bold-67" d="M 2919 594 
Q 2688 288 2409 144 
Q 2131 0 1766 0 
Q 1125 0 706 504 
Q 288 1009 288 1791 
Q 288 2575 706 3076 
Q 1125 3578 1766 3578 
Q 2131 3578 2409 3434 
Q 2688 3291 2919 2981 
L 2919 3500 
L 4044 3500 
L 4044 353 
Q 4044 -491 3511 -936 
Q 2978 -1381 1966 -1381 
Q 1638 -1381 1331 -1331 
Q 1025 -1281 716 -1178 
L 716 -306 
Q 1009 -475 1290 -558 
Q 1572 -641 1856 -641 
Q 2406 -641 2662 -400 
Q 2919 -159 2919 353 
L 2919 594 
z
M 2181 2772 
Q 1834 2772 1640 2515 
Q 1447 2259 1447 1791 
Q 1447 1309 1634 1061 
Q 1822 813 2181 813 
Q 2531 813 2725 1069 
Q 2919 1325 2919 1791 
Q 2919 2259 2725 2515 
Q 2531 2772 2181 2772 
z
" transform="scale(0.015625)"/>
       <path id="DejaVuSans-Bold-69" d="M 538 3500 
L 1656 3500 
L 1656 0 
L 538 0 
L 538 3500 
z
M 538 4863 
L 1656 4863 
L 1656 3950 
L 538 3950 
L 538 4863 
z
" transform="scale(0.015625)"/>
       <path id="DejaVuSans-Bold-64" d="M 2919 2988 
L 2919 4863 
L 4044 4863 
L 4044 0 
L 2919 0 
L 2919 506 
Q 2688 197 2409 53 
Q 2131 -91 1766 -91 
Q 1119 -91 703 423 
Q 288 938 288 1747 
Q 288 2556 703 3070 
Q 1119 3584 1766 3584 
Q 2128 3584 2408 3439 
Q 2688 3294 2919 2988 
z
M 2181 722 
Q 2541 722 2730 984 
Q 2919 1247 2919 1747 
Q 2919 2247 2730 2509 
Q 2541 2772 2181 2772 
Q 1825 2772 1636 2509 
Q 1447 2247 1447 1747 
Q 1447 1247 1636 984 
Q 1825 722 2181 722 
z
" transform="scale(0.015625)"/>
      </defs>
      <use xlink:href="#DejaVuSans-Bold-4c"/>
      <use xlink:href="#DejaVuSans-Bold-65" transform="translate(63.720703 0)"/>
      <use xlink:href="#DejaVuSans-Bold-67" transform="translate(131.542969 0)"/>
      <use xlink:href="#DejaVuSans-Bold-61" transform="translate(203.125 0)"/>
      <use xlink:href="#DejaVuSans-Bold-6c" transform="translate(270.605469 0)"/>
      <use xlink:href="#DejaVuSans-Bold-69" transform="translate(304.882812 0)"/>
      <use xlink:href="#DejaVuSans-Bold-64" transform="translate(339.160156 0)"/>
      <use xlink:href="#DejaVuSans-Bold-61" transform="translate(410.742188 0)"/>
      <use xlink:href="#DejaVuSans-Bold-64" transform="translate(478.222656 0)"/>
      <use xlink:href="#DejaVuSans-Bold-65" transform="translate(549.804688 0)"/>
     </g>
    </g>
   </g>
   <g id="text_4">
    <g clip-path="url(#pb2f1a21b46)">
     <!-- Greta -->
     <g transform="translate(30.361535 131.681901) scale(0.1 -0.1)">
      <defs>
       <path id="DejaVuSans-Bold-47" d="M 4781 347 
Q 4331 128 3847 18 
Q 3363 -91 2847 -91 
Q 1681 -91 1000 561 
Q 319 1213 319 2328 
Q 319 3456 1012 4103 
Q 1706 4750 2913 4750 
Q 3378 4750 3804 4662 
Q 4231 4575 4609 4403 
L 4609 3438 
Q 4219 3659 3833 3768 
Q 3447 3878 3059 3878 
Q 2341 3878 1952 3476 
Q 1563 3075 1563 2328 
Q 1563 1588 1938 1184 
Q 2313 781 3003 781 
Q 3191 781 3352 804 
Q 3513 828 3641 878 
L 3641 1784 
L 2906 1784 
L 2906 2591 
L 4781 2591 
L 4781 347 
z
" transform="scale(0.015625)"/>
       <path id="DejaVuSans-Bold-74" d="M 1759 4494 
L 1759 3500 
L 2913 3500 
L 2913 2700 
L 1759 2700 
L 1759 1216 
Q 1759 972 1856 886 
Q 1953 800 2241 800 
L 2816 800 
L 2816 0 
L 1856 0 
Q 1194 0 917 276 
Q 641 553 641 1216 
L 641 2700 
L 84 2700 
L 84 3500 
L 641 3500 
L 641 4494 
L 1759 4494 
z
" transform="scale(0.015625)"/>
      </defs>
      <use xlink:href="#DejaVuSans-Bold-47"/>
      <use xlink:href="#DejaVuSans-Bold-72" transform="translate(82.080078 0)"/>
      <use xlink:href="#DejaVuSans-Bold-65" transform="translate(131.396484 0)"/>
      <use xlink:href="#DejaVuSans-Bold-74" transform="translate(199.21875 0)"/>
      <use xlink:href="#DejaVuSans-Bold-61" transform="translate(247.021484 0)"/>
     </g>
    </g>
   </g>
   <g id="text_5">
    <g clip-path="url(#pb2f1a21b46)">
     <!-- Temporada -->
     <g transform="translate(329.319008 85.156858) scale(0.1 -0.1)">
      <defs>
       <path id="DejaVuSans-Bold-54" d="M 31 4666 
L 4331 4666 
L 4331 3756 
L 2784 3756 
L 2784 0 
L 1581 0 
L 1581 3756 
L 31 3756 
L 31 4666 
z
" transform="scale(0.015625)"/>
       <path id="DejaVuSans-Bold-70" d="M 1656 506 
L 1656 -1331 
L 538 -1331 
L 538 3500 
L 1656 3500 
L 1656 2988 
Q 1888 3294 2169 3439 
Q 2450 3584 2816 3584 
Q 3463 3584 3878 3070 
Q 4294 2556 4294 1747 
Q 4294 938 3878 423 
Q 3463 -91 2816 -91 
Q 2450 -91 2169 54 
Q 1888 200 1656 506 
z
M 2400 2772 
Q 2041 2772 1848 2508 
Q 1656 2244 1656 1747 
Q 1656 1250 1848 986 
Q 2041 722 2400 722 
Q 2759 722 2948 984 
Q 3138 1247 3138 1747 
Q 3138 2247 2948 2509 
Q 2759 2772 2400 2772 
z
" transform="scale(0.015625)"/>
      </defs>
      <use xlink:href="#DejaVuSans-Bold-54"/>
      <use xlink:href="#DejaVuSans-Bold-65" transform="translate(54.962891 0)"/>
      <use xlink:href="#DejaVuSans-Bold-6d" transform="translate(122.785156 0)"/>
      <use xlink:href="#DejaVuSans-Bold-70" transform="translate(226.984375 0)"/>
      <use xlink:href="#DejaVuSans-Bold-6f" transform="translate(298.566406 0)"/>
      <use xlink:href="#DejaVuSans-Bold-72" transform="translate(367.267578 0)"/>
      <use xlink:href="#DejaVuSans-Bold-61" transform="translate(416.583984 0)"/>
      <use xlink:href="#DejaVuSans-Bold-64" transform="translate(484.064453 0)"/>
      <use xlink:href="#DejaVuSans-Bold-61" transform="translate(555.646484 0)"/>
     </g>
    </g>
   </g>
   <g id="text_6">
    <g clip-path="url(#pb2f1a21b46)">
     <!-- Paulo de Tarso e a história do cristianismo primitivo -->
     <g transform="translate(-48.655559 66.420633) scale(0.1 -0.1)">
      <defs>
       <path id="DejaVuSans-Bold-50" d="M 588 4666 
L 2584 4666 
Q 3475 4666 3951 4270 
Q 4428 3875 4428 3144 
Q 4428 2409 3951 2014 
Q 3475 1619 2584 1619 
L 1791 1619 
L 1791 0 
L 588 0 
L 588 4666 
z
M 1791 3794 
L 1791 2491 
L 2456 2491 
Q 2806 2491 2997 2661 
Q 3188 2831 3188 3144 
Q 3188 3456 2997 3625 
Q 2806 3794 2456 3794 
L 1791 3794 
z
" transform="scale(0.015625)"/>
       <path id="DejaVuSans-Bold-20" transform="scale(0.015625)"/>
       <path id="DejaVuSans-Bold-68" d="M 4056 2131 
L 4056 0 
L 2931 0 
L 2931 347 
L 2931 1625 
Q 2931 2084 2911 2256 
Q 2891 2428 2841 2509 
Q 2775 2619 2662 2680 
Q 2550 2741 2406 2741 
Q 2056 2741 1856 2470 
Q 1656 2200 1656 1722 
L 1656 0 
L 538 0 
L 538 4863 
L 1656 4863 
L 1656 2988 
Q 1909 3294 2193 3439 
Q 2478 3584 2822 3584 
Q 3428 3584 3742 3212 
Q 4056 2841 4056 2131 
z
" transform="scale(0.015625)"/>
       <path id="DejaVuSans-Bold-f3" d="M 2203 2784 
Q 1831 2784 1636 2517 
Q 1441 2250 1441 1747 
Q 1441 1244 1636 976 
Q 1831 709 2203 709 
Q 2569 709 2762 976 
Q 2956 1244 2956 1747 
Q 2956 2250 2762 2517 
Q 2569 2784 2203 2784 
z
M 2203 3584 
Q 3106 3584 3614 3096 
Q 4122 2609 4122 1747 
Q 4122 884 3614 396 
Q 3106 -91 2203 -91 
Q 1297 -91 786 396 
Q 275 884 275 1747 
Q 275 2609 786 3096 
Q 1297 3584 2203 3584 
z
M 2694 5119 
L 3578 5119 
L 2425 3944 
L 1813 3944 
L 2694 5119 
z
" transform="scale(0.015625)"/>
       <path id="DejaVuSans-Bold-6e" d="M 4056 2131 
L 4056 0 
L 2931 0 
L 2931 347 
L 2931 1631 
Q 2931 2084 2911 2256 
Q 2891 2428 2841 2509 
Q 2775 2619 2662 2680 
Q 2550 2741 2406 2741 
Q 2056 2741 1856 2470 
Q 1656 2200 1656 1722 
L 1656 0 
L 538 0 
L 538 3500 
L 1656 3500 
L 1656 2988 
Q 1909 3294 2193 3439 
Q 2478 3584 2822 3584 
Q 3428 3584 3742 3212 
Q 4056 2841 4056 2131 
z
" transform="scale(0.015625)"/>
       <path id="DejaVuSans-Bold-76" d="M 97 3500 
L 1216 3500 
L 2088 1081 
L 2956 3500 
L 4078 3500 
L 2700 0 
L 1472 0 
L 97 3500 
z
" transform="scale(0.015625)"/>
      </defs>
      <use xlink:href="#DejaVuSans-Bold-50"/>
      <use xlink:href="#DejaVuSans-Bold-61" transform="translate(70.666016 0)"/>
      <use xlink:href="#DejaVuSans-Bold-75" transform="translate(138.146484 0)"/>
      <use xlink:href="#DejaVuSans-Bold-6c" transform="translate(209.337891 0)"/>
      <use xlink:href="#DejaVuSans-Bold-6f" transform="translate(243.615234 0)"/>
      <use xlink:href="#DejaVuSans-Bold-20" transform="translate(312.316406 0)"/>
      <use xlink:href="#DejaVuSans-Bold-64" transform="translate(347.130859 0)"/>
      <use xlink:href="#DejaVuSans-Bold-65" transform="translate(418.712891 0)"/>
      <use xlink:href="#DejaVuSans-Bold-20" transform="translate(486.535156 0)"/>
      <use xlink:href="#DejaVuSans-Bold-54" transform="translate(521.349609 0)"/>
      <use xlink:href="#DejaVuSans-Bold-61" transform="translate(576.6875 0)"/>
      <use xlink:href="#DejaVuSans-Bold-72" transform="translate(644.167969 0)"/>
      <use xlink:href="#DejaVuSans-Bold-73" transform="translate(693.484375 0)"/>
      <use xlink:href="#DejaVuSans-Bold-6f" transform="translate(753.005859 0)"/>
      <use xlink:href="#DejaVuSans-Bold-20" transform="translate(821.707031 0)"/>
      <use xlink:href="#DejaVuSans-Bold-65" transform="translate(856.521484 0)"/>
      <use xlink:href="#DejaVuSans-Bold-20" transform="translate(924.34375 0)"/>
      <use xlink:href="#DejaVuSans-Bold-61" transform="translate(959.158203 0)"/>
      <use xlink:href="#DejaVuSans-Bold-20" transform="translate(1026.638672 0)"/>
      <use xlink:href="#DejaVuSans-Bold-68" transform="translate(1061.453125 0)"/>
      <use xlink:href="#DejaVuSans-Bold-69" transform="translate(1132.644531 0)"/>
      <use xlink:href="#DejaVuSans-Bold-73" transform="translate(1166.921875 0)"/>
      <use xlink:href="#DejaVuSans-Bold-74" transform="translate(1226.443359 0)"/>
      <use xlink:href="#DejaVuSans-Bold-f3" transform="translate(1274.246094 0)"/>
      <use xlink:href="#DejaVuSans-Bold-72" transform="translate(1342.947266 0)"/>
      <use xlink:href="#DejaVuSans-Bold-69" transform="translate(1392.263672 0)"/>
      <use xlink:href="#DejaVuSans-Bold-61" transform="translate(1426.541016 0)"/>
      <use xlink:href="#DejaVuSans-Bold-20" transform="translate(1494.021484 0)"/>
      <use xlink:href="#DejaVuSans-Bold-64" transform="translate(1528.835938 0)"/>
      <use xlink:href="#DejaVuSans-Bold-6f" transform="translate(1600.417969 0)"/>
      <use xlink:href="#DejaVuSans-Bold-20" transform="translate(1669.119141 0)"/>
      <use xlink:href="#DejaVuSans-Bold-63" transform="translate(1703.933594 0)"/>
      <use xlink:href="#DejaVuSans-Bold-72" transform="translate(1763.210938 0)"/>
      <use xlink:href="#DejaVuSans-Bold-69" transform="translate(1812.527344 0)"/>
      <use xlink:href="#DejaVuSans-Bold-73" transform="translate(1846.804688 0)"/>
      <use xlink:href="#DejaVuSans-Bold-74" transform="translate(1906.326172 0)"/>
      <use xlink:href="#DejaVuSans-Bold-69" transform="translate(1954.128906 0)"/>
      <use xlink:href="#DejaVuSans-Bold-61" transform="translate(1988.40625 0)"/>
      <use xlink:href="#DejaVuSans-Bold-6e" transform="translate(2055.886719 0)"/>
      <use xlink:href="#DejaVuSans-Bold-69" transform="translate(2127.078125 0)"/>
      <use xlink:href="#DejaVuSans-Bold-73" transform="translate(2161.355469 0)"/>
      <use xlink:href="#DejaVuSans-Bold-6d" transform="translate(2220.876953 0)"/>
      <use xlink:href="#DejaVuSans-Bold-6f" transform="translate(2325.076172 0)"/>
      <use xlink:href="#DejaVuSans-Bold-20" transform="translate(2393.777344 0)"/>
      <use xlink:href="#DejaVuSans-Bold-70" transform="translate(2428.591797 0)"/>
      <use xlink:href="#DejaVuSans-Bold-72" transform="translate(2500.173828 0)"/>
      <use xlink:href="#DejaVuSans-Bold-69" transform="translate(2549.490234 0)"/>
      <use xlink:href="#DejaVuSans-Bold-6d" transform="translate(2583.767578 0)"/>
      <use xlink:href="#DejaVuSans-Bold-69" transform="translate(2687.966797 0)"/>
      <use xlink:href="#DejaVuSans-Bold-74" transform="translate(2722.244141 0)"/>
      <use xlink:href="#DejaVuSans-Bold-69" transform="translate(2770.046875 0)"/>
      <use xlink:href="#DejaVuSans-Bold-76" transform="translate(2804.324219 0)"/>
      <use xlink:href="#DejaVuSans-Bold-6f" transform="translate(2869.509766 0)"/>
     </g>
    </g>
   </g>
   <g id="text_7">
    <g clip-path="url(#pb2f1a21b46)">
     <!-- A vida invisível -->
     <g transform="translate(345.62102 236.176305) scale(0.1 -0.1)">
      <defs>
       <path id="DejaVuSans-Bold-41" d="M 3419 850 
L 1538 850 
L 1241 0 
L 31 0 
L 1759 4666 
L 3194 4666 
L 4922 0 
L 3713 0 
L 3419 850 
z
M 1838 1716 
L 3116 1716 
L 2478 3572 
L 1838 1716 
z
" transform="scale(0.015625)"/>
       <path id="DejaVuSans-Bold-ed" d="M 538 3500 
L 1656 3500 
L 1656 0 
L 538 0 
L 538 3500 
z
M 1590 5119 
L 2474 5119 
L 1321 3944 
L 709 3944 
L 1590 5119 
z
" transform="scale(0.015625)"/>
      </defs>
      <use xlink:href="#DejaVuSans-Bold-41"/>
      <use xlink:href="#DejaVuSans-Bold-20" transform="translate(77.392578 0)"/>
      <use xlink:href="#DejaVuSans-Bold-76" transform="translate(112.207031 0)"/>
      <use xlink:href="#DejaVuSans-Bold-69" transform="translate(177.392578 0)"/>
      <use xlink:href="#DejaVuSans-Bold-64" transform="translate(211.669922 0)"/>
      <use xlink:href="#DejaVuSans-Bold-61" transform="translate(283.251953 0)"/>
      <use xlink:href="#DejaVuSans-Bold-20" transform="translate(350.732422 0)"/>
      <use xlink:href="#DejaVuSans-Bold-69" transform="translate(385.546875 0)"/>
      <use xlink:href="#DejaVuSans-Bold-6e" transform="translate(419.824219 0)"/>
      <use xlink:href="#DejaVuSans-Bold-76" transform="translate(491.015625 0)"/>
      <use xlink:href="#DejaVuSans-Bold-69" transform="translate(556.201172 0)"/>
      <use xlink:href="#DejaVuSans-Bold-73" transform="translate(590.478516 0)"/>
      <use xlink:href="#DejaVuSans-Bold-ed" transform="translate(650 0)"/>
      <use xlink:href="#DejaVuSans-Bold-76" transform="translate(684.277344 0)"/>
      <use xlink:href="#DejaVuSans-Bold-65" transform="translate(749.462891 0)"/>
      <use xlink:href="#DejaVuSans-Bold-6c" transform="translate(817.285156 0)"/>
     </g>
    </g>
   </g>
   <g id="text_8">
    <g clip-path="url(#pb2f1a21b46)">
     <!-- Los silencios -->
     <g transform="translate(117.767462 331.519706) scale(0.1 -0.1)">
      <use xlink:href="#DejaVuSans-Bold-4c"/>
      <use xlink:href="#DejaVuSans-Bold-6f" transform="translate(63.720703 0)"/>
      <use xlink:href="#DejaVuSans-Bold-73" transform="translate(132.421875 0)"/>
      <use xlink:href="#DejaVuSans-Bold-20" transform="translate(191.943359 0)"/>
      <use xlink:href="#DejaVuSans-Bold-73" transform="translate(226.757812 0)"/>
      <use xlink:href="#DejaVuSans-Bold-69" transform="translate(286.279297 0)"/>
      <use xlink:href="#DejaVuSans-Bold-6c" transform="translate(320.556641 0)"/>
      <use xlink:href="#DejaVuSans-Bold-65" transform="translate(354.833984 0)"/>
      <use xlink:href="#DejaVuSans-Bold-6e" transform="translate(422.65625 0)"/>
      <use xlink:href="#DejaVuSans-Bold-63" transform="translate(493.847656 0)"/>
      <use xlink:href="#DejaVuSans-Bold-69" transform="translate(553.125 0)"/>
      <use xlink:href="#DejaVuSans-Bold-6f" transform="translate(587.402344 0)"/>
      <use xlink:href="#DejaVuSans-Bold-73" transform="translate(656.103516 0)"/>
     </g>
    </g>
   </g>
   <g id="text_9">
    <g clip-path="url(#pb2f1a21b46)">
     <!-- O juízo -->
     <g transform="translate(18.163385 209.411347) scale(0.1 -0.1)">
      <defs>
       <path id="DejaVuSans-Bold-4f" d="M 2719 3878 
Q 2169 3878 1866 3472 
Q 1563 3066 1563 2328 
Q 1563 1594 1866 1187 
Q 2169 781 2719 781 
Q 3272 781 3575 1187 
Q 3878 1594 3878 2328 
Q 3878 3066 3575 3472 
Q 3272 3878 2719 3878 
z
M 2719 4750 
Q 3844 4750 4481 4106 
Q 5119 3463 5119 2328 
Q 5119 1197 4481 553 
Q 3844 -91 2719 -91 
Q 1597 -91 958 553 
Q 319 1197 319 2328 
Q 319 3463 958 4106 
Q 1597 4750 2719 4750 
z
" transform="scale(0.015625)"/>
       <path id="DejaVuSans-Bold-6a" d="M 538 3500 
L 1656 3500 
L 1656 63 
Q 1656 -641 1318 -1011 
Q 981 -1381 341 -1381 
L -213 -1381 
L -213 -647 
L -19 -647 
Q 300 -647 419 -503 
Q 538 -359 538 63 
L 538 3500 
z
M 538 4863 
L 1656 4863 
L 1656 3950 
L 538 3950 
L 538 4863 
z
" transform="scale(0.015625)"/>
       <path id="DejaVuSans-Bold-7a" d="M 366 3500 
L 3419 3500 
L 3419 2719 
L 1575 800 
L 3419 800 
L 3419 0 
L 288 0 
L 288 781 
L 2131 2700 
L 366 2700 
L 366 3500 
z
" transform="scale(0.015625)"/>
      </defs>
      <use xlink:href="#DejaVuSans-Bold-4f"/>
      <use xlink:href="#DejaVuSans-Bold-20" transform="translate(85.009766 0)"/>
      <use xlink:href="#DejaVuSans-Bold-6a" transform="translate(119.824219 0)"/>
      <use xlink:href="#DejaVuSans-Bold-75" transform="translate(154.101562 0)"/>
      <use xlink:href="#DejaVuSans-Bold-ed" transform="translate(225.292969 0)"/>
      <use xlink:href="#DejaVuSans-Bold-7a" transform="translate(259.570312 0)"/>
      <use xlink:href="#DejaVuSans-Bold-6f" transform="translate(317.773438 0)"/>
     </g>
    </g>
   </g>
   <g id="text_10">
    <g clip-path="url(#pb2f1a21b46)">
     <!-- Sócrates -->
     <g transform="translate(220.268329 315.329913) scale(0.1 -0.1)">
      <defs>
       <path id="DejaVuSans-Bold-53" d="M 3834 4519 
L 3834 3531 
Q 3450 3703 3084 3790 
Q 2719 3878 2394 3878 
Q 1963 3878 1756 3759 
Q 1550 3641 1550 3391 
Q 1550 3203 1689 3098 
Q 1828 2994 2194 2919 
L 2706 2816 
Q 3484 2659 3812 2340 
Q 4141 2022 4141 1434 
Q 4141 663 3683 286 
Q 3225 -91 2284 -91 
Q 1841 -91 1394 -6 
Q 947 78 500 244 
L 500 1259 
Q 947 1022 1364 901 
Q 1781 781 2169 781 
Q 2563 781 2772 912 
Q 2981 1044 2981 1288 
Q 2981 1506 2839 1625 
Q 2697 1744 2272 1838 
L 1806 1941 
Q 1106 2091 782 2419 
Q 459 2747 459 3303 
Q 459 4000 909 4375 
Q 1359 4750 2203 4750 
Q 2588 4750 2994 4692 
Q 3400 4634 3834 4519 
z
" transform="scale(0.015625)"/>
      </defs>
      <use xlink:href="#DejaVuSans-Bold-53"/>
      <use xlink:href="#DejaVuSans-Bold-f3" transform="translate(72.021484 0)"/>
      <use xlink:href="#DejaVuSans-Bold-63" transform="translate(140.722656 0)"/>
      <use xlink:href="#DejaVuSans-Bold-72" transform="translate(200 0)"/>
      <use xlink:href="#DejaVuSans-Bold-61" transform="translate(249.316406 0)"/>
      <use xlink:href="#DejaVuSans-Bold-74" transform="translate(316.796875 0)"/>
      <use xlink:href="#DejaVuSans-Bold-65" transform="translate(364.599609 0)"/>
      <use xlink:href="#DejaVuSans-Bold-73" transform="translate(432.421875 0)"/>
     </g>
    </g>
   </g>
   <g id="text_11">
    <g clip-path="url(#pb2f1a21b46)">
     <!-- Carcereiros - O filme -->
     <g transform="translate(278.624282 305.620327) scale(0.1 -0.1)">
      <defs>
       <path id="DejaVuSans-Bold-43" d="M 4288 256 
Q 3956 84 3597 -3 
Q 3238 -91 2847 -91 
Q 1681 -91 1000 561 
Q 319 1213 319 2328 
Q 319 3447 1000 4098 
Q 1681 4750 2847 4750 
Q 3238 4750 3597 4662 
Q 3956 4575 4288 4403 
L 4288 3438 
Q 3953 3666 3628 3772 
Q 3303 3878 2944 3878 
Q 2300 3878 1931 3465 
Q 1563 3053 1563 2328 
Q 1563 1606 1931 1193 
Q 2300 781 2944 781 
Q 3303 781 3628 887 
Q 3953 994 4288 1222 
L 4288 256 
z
" transform="scale(0.015625)"/>
       <path id="DejaVuSans-Bold-2d" d="M 347 2297 
L 2309 2297 
L 2309 1388 
L 347 1388 
L 347 2297 
z
" transform="scale(0.015625)"/>
       <path id="DejaVuSans-Bold-66" d="M 2841 4863 
L 2841 4128 
L 2222 4128 
Q 1984 4128 1890 4042 
Q 1797 3956 1797 3744 
L 1797 3500 
L 2753 3500 
L 2753 2700 
L 1797 2700 
L 1797 0 
L 678 0 
L 678 2700 
L 122 2700 
L 122 3500 
L 678 3500 
L 678 3744 
Q 678 4316 997 4589 
Q 1316 4863 1984 4863 
L 2841 4863 
z
" transform="scale(0.015625)"/>
      </defs>
      <use xlink:href="#DejaVuSans-Bold-43"/>
      <use xlink:href="#DejaVuSans-Bold-61" transform="translate(73.388672 0)"/>
      <use xlink:href="#DejaVuSans-Bold-72" transform="translate(140.869141 0)"/>
      <use xlink:href="#DejaVuSans-Bold-63" transform="translate(190.185547 0)"/>
      <use xlink:href="#DejaVuSans-Bold-65" transform="translate(249.462891 0)"/>
      <use xlink:href="#DejaVuSans-Bold-72" transform="translate(317.285156 0)"/>
      <use xlink:href="#DejaVuSans-Bold-65" transform="translate(366.601562 0)"/>
      <use xlink:href="#DejaVuSans-Bold-69" transform="translate(434.423828 0)"/>
      <use xlink:href="#DejaVuSans-Bold-72" transform="translate(468.701172 0)"/>
      <use xlink:href="#DejaVuSans-Bold-6f" transform="translate(518.017578 0)"/>
      <use xlink:href="#DejaVuSans-Bold-73" transform="translate(586.71875 0)"/>
      <use xlink:href="#DejaVuSans-Bold-20" transform="translate(646.240234 0)"/>
      <use xlink:href="#DejaVuSans-Bold-2d" transform="translate(681.054688 0)"/>
      <use xlink:href="#DejaVuSans-Bold-20" transform="translate(722.558594 0)"/>
      <use xlink:href="#DejaVuSans-Bold-4f" transform="translate(757.373047 0)"/>
      <use xlink:href="#DejaVuSans-Bold-20" transform="translate(842.382812 0)"/>
      <use xlink:href="#DejaVuSans-Bold-66" transform="translate(877.197266 0)"/>
      <use xlink:href="#DejaVuSans-Bold-69" transform="translate(920.703125 0)"/>
      <use xlink:href="#DejaVuSans-Bold-6c" transform="translate(954.980469 0)"/>
      <use xlink:href="#DejaVuSans-Bold-6d" transform="translate(989.257812 0)"/>
      <use xlink:href="#DejaVuSans-Bold-65" transform="translate(1093.457031 0)"/>
     </g>
    </g>
   </g>
   <g id="text_12">
    <g clip-path="url(#pb2f1a21b46)">
     <!-- Drama -->
     <g transform="translate(199.070042 182.547078) scale(0.1 -0.1)">
      <use xlink:href="#DejaVuSans-Bold-44"/>
      <use xlink:href="#DejaVuSans-Bold-72" transform="translate(83.007812 0)"/>
      <use xlink:href="#DejaVuSans-Bold-61" transform="translate(132.324219 0)"/>
      <use xlink:href="#DejaVuSans-Bold-6d" transform="translate(199.804688 0)"/>
      <use xlink:href="#DejaVuSans-Bold-61" transform="translate(304.003906 0)"/>
     </g>
    </g>
   </g>
   <g id="text_13">
    <g clip-path="url(#pb2f1a21b46)">
     <!-- No coração do mundo -->
     <g transform="translate(218.591777 43.325202) scale(0.1 -0.1)">
      <defs>
       <path id="DejaVuSans-Bold-4e" d="M 588 4666 
L 1931 4666 
L 3628 1466 
L 3628 4666 
L 4769 4666 
L 4769 0 
L 3425 0 
L 1728 3200 
L 1728 0 
L 588 0 
L 588 4666 
z
" transform="scale(0.015625)"/>
       <path id="DejaVuSans-Bold-e7" d="M 3366 3391 
L 3366 2478 
Q 3138 2634 2908 2709 
Q 2678 2784 2431 2784 
Q 1963 2784 1702 2511 
Q 1441 2238 1441 1747 
Q 1441 1256 1702 982 
Q 1963 709 2431 709 
Q 2694 709 2930 787 
Q 3166 866 3366 1019 
L 3366 103 
Q 3103 6 2833 -42 
Q 2563 -91 2291 -91 
Q 1344 -91 809 395 
Q 275 881 275 1747 
Q 275 2613 809 3098 
Q 1344 3584 2291 3584 
Q 2566 3584 2833 3536 
Q 3100 3488 3366 3391 
z
M 2457 0 
Q 2639 -194 2724 -359 
Q 2810 -525 2810 -672 
Q 2810 -969 2618 -1111 
Q 2426 -1253 2029 -1253 
Q 1879 -1253 1719 -1233 
Q 1560 -1213 1398 -1172 
L 1395 -697 
Q 1551 -747 1680 -770 
Q 1810 -794 1914 -794 
Q 2095 -794 2196 -722 
Q 2298 -650 2298 -525 
Q 2298 -444 2231 -316 
Q 2164 -188 2023 0 
L 2457 0 
z
" transform="scale(0.015625)"/>
       <path id="DejaVuSans-Bold-e3" d="M 2106 1575 
Q 1756 1575 1579 1456 
Q 1403 1338 1403 1106 
Q 1403 894 1545 773 
Q 1688 653 1941 653 
Q 2256 653 2472 879 
Q 2688 1106 2688 1447 
L 2688 1575 
L 2106 1575 
z
M 3816 1997 
L 3816 0 
L 2688 0 
L 2688 519 
Q 2463 200 2181 54 
Q 1900 -91 1497 -91 
Q 953 -91 614 226 
Q 275 544 275 1050 
Q 275 1666 698 1953 
Q 1122 2241 2028 2241 
L 2688 2241 
L 2688 2328 
Q 2688 2594 2478 2717 
Q 2269 2841 1825 2841 
Q 1466 2841 1156 2769 
Q 847 2697 581 2553 
L 581 3406 
Q 941 3494 1303 3539 
Q 1666 3584 2028 3584 
Q 2975 3584 3395 3211 
Q 3816 2838 3816 1997 
z
M 2190 4263 
L 2018 4378 
Q 2006 4384 1987 4397 
Q 1840 4494 1762 4494 
Q 1650 4494 1590 4397 
Q 1531 4300 1531 4116 
L 1531 4091 
L 1097 4091 
Q 1097 4516 1257 4747 
Q 1418 4978 1709 4978 
Q 1822 4978 1936 4936 
Q 2050 4894 2178 4800 
L 2368 4666 
Q 2437 4619 2495 4594 
Q 2553 4569 2600 4569 
Q 2712 4569 2774 4669 
Q 2837 4769 2837 4947 
L 2837 4972 
L 3272 4972 
Q 3272 4547 3111 4315 
Q 2950 4084 2659 4084 
Q 2547 4084 2442 4121 
Q 2337 4159 2190 4263 
z
" transform="scale(0.015625)"/>
      </defs>
      <use xlink:href="#DejaVuSans-Bold-4e"/>
      <use xlink:href="#DejaVuSans-Bold-6f" transform="translate(83.691406 0)"/>
      <use xlink:href="#DejaVuSans-Bold-20" transform="translate(152.392578 0)"/>
      <use xlink:href="#DejaVuSans-Bold-63" transform="translate(187.207031 0)"/>
      <use xlink:href="#DejaVuSans-Bold-6f" transform="translate(246.484375 0)"/>
      <use xlink:href="#DejaVuSans-Bold-72" transform="translate(315.185547 0)"/>
      <use xlink:href="#DejaVuSans-Bold-61" transform="translate(364.501953 0)"/>
      <use xlink:href="#DejaVuSans-Bold-e7" transform="translate(431.982422 0)"/>
      <use xlink:href="#DejaVuSans-Bold-e3" transform="translate(491.259766 0)"/>
      <use xlink:href="#DejaVuSans-Bold-6f" transform="translate(558.740234 0)"/>
      <use xlink:href="#DejaVuSans-Bold-20" transform="translate(627.441406 0)"/>
      <use xlink:href="#DejaVuSans-Bold-64" transform="translate(662.255859 0)"/>
      <use xlink:href="#DejaVuSans-Bold-6f" transform="translate(733.837891 0)"/>
      <use xlink:href="#DejaVuSans-Bold-20" transform="translate(802.539062 0)"/>
      <use xlink:href="#DejaVuSans-Bold-6d" transform="translate(837.353516 0)"/>
      <use xlink:href="#DejaVuSans-Bold-75" transform="translate(941.552734 0)"/>
      <use xlink:href="#DejaVuSans-Bold-6e" transform="translate(1012.744141 0)"/>
      <use xlink:href="#DejaVuSans-Bold-64" transform="translate(1083.935547 0)"/>
      <use xlink:href="#DejaVuSans-Bold-6f" transform="translate(1155.517578 0)"/>
     </g>
    </g>
   </g>
   <g id="text_14">
    <!-- Grafo focado no gênero: Drama -->
    <g transform="translate(104.908906 -6) scale(0.14 -0.14)">
     <defs>
      <path id="DejaVuSans-47" d="M 3809 666 
L 3809 1919 
L 2778 1919 
L 2778 2438 
L 4434 2438 
L 4434 434 
Q 4069 175 3628 42 
Q 3188 -91 2688 -91 
Q 1594 -91 976 548 
Q 359 1188 359 2328 
Q 359 3472 976 4111 
Q 1594 4750 2688 4750 
Q 3144 4750 3555 4637 
Q 3966 4525 4313 4306 
L 4313 3634 
Q 3963 3931 3569 4081 
Q 3175 4231 2741 4231 
Q 1884 4231 1454 3753 
Q 1025 3275 1025 2328 
Q 1025 1384 1454 906 
Q 1884 428 2741 428 
Q 3075 428 3337 486 
Q 3600 544 3809 666 
z
" transform="scale(0.015625)"/>
      <path id="DejaVuSans-72" d="M 2631 2963 
Q 2534 3019 2420 3045 
Q 2306 3072 2169 3072 
Q 1681 3072 1420 2755 
Q 1159 2438 1159 1844 
L 1159 0 
L 581 0 
L 581 3500 
L 1159 3500 
L 1159 2956 
Q 1341 3275 1631 3429 
Q 1922 3584 2338 3584 
Q 2397 3584 2469 3576 
Q 2541 3569 2628 3553 
L 2631 2963 
z
" transform="scale(0.015625)"/>
      <path id="DejaVuSans-61" d="M 2194 1759 
Q 1497 1759 1228 1600 
Q 959 1441 959 1056 
Q 959 750 1161 570 
Q 1363 391 1709 391 
Q 2188 391 2477 730 
Q 2766 1069 2766 1631 
L 2766 1759 
L 2194 1759 
z
M 3341 1997 
L 3341 0 
L 2766 0 
L 2766 531 
Q 2569 213 2275 61 
Q 1981 -91 1556 -91 
Q 1019 -91 701 211 
Q 384 513 384 1019 
Q 384 1609 779 1909 
Q 1175 2209 1959 2209 
L 2766 2209 
L 2766 2266 
Q 2766 2663 2505 2880 
Q 2244 3097 1772 3097 
Q 1472 3097 1187 3025 
Q 903 2953 641 2809 
L 641 3341 
Q 956 3463 1253 3523 
Q 1550 3584 1831 3584 
Q 2591 3584 2966 3190 
Q 3341 2797 3341 1997 
z
" transform="scale(0.015625)"/>
      <path id="DejaVuSans-66" d="M 2375 4863 
L 2375 4384 
L 1825 4384 
Q 1516 4384 1395 4259 
Q 1275 4134 1275 3809 
L 1275 3500 
L 2222 3500 
L 2222 3053 
L 1275 3053 
L 1275 0 
L 697 0 
L 697 3053 
L 147 3053 
L 147 3500 
L 697 3500 
L 697 3744 
Q 697 4328 969 4595 
Q 1241 4863 1831 4863 
L 2375 4863 
z
" transform="scale(0.015625)"/>
      <path id="DejaVuSans-6f" d="M 1959 3097 
Q 1497 3097 1228 2736 
Q 959 2375 959 1747 
Q 959 1119 1226 758 
Q 1494 397 1959 397 
Q 2419 397 2687 759 
Q 2956 1122 2956 1747 
Q 2956 2369 2687 2733 
Q 2419 3097 1959 3097 
z
M 1959 3584 
Q 2709 3584 3137 3096 
Q 3566 2609 3566 1747 
Q 3566 888 3137 398 
Q 2709 -91 1959 -91 
Q 1206 -91 779 398 
Q 353 888 353 1747 
Q 353 2609 779 3096 
Q 1206 3584 1959 3584 
z
" transform="scale(0.015625)"/>
      <path id="DejaVuSans-20" transform="scale(0.015625)"/>
      <path id="DejaVuSans-63" d="M 3122 3366 
L 3122 2828 
Q 2878 2963 2633 3030 
Q 2388 3097 2138 3097 
Q 1578 3097 1268 2742 
Q 959 2388 959 1747 
Q 959 1106 1268 751 
Q 1578 397 2138 397 
Q 2388 397 2633 464 
Q 2878 531 3122 666 
L 3122 134 
Q 2881 22 2623 -34 
Q 2366 -91 2075 -91 
Q 1284 -91 818 406 
Q 353 903 353 1747 
Q 353 2603 823 3093 
Q 1294 3584 2113 3584 
Q 2378 3584 2631 3529 
Q 2884 3475 3122 3366 
z
" transform="scale(0.015625)"/>
      <path id="DejaVuSans-64" d="M 2906 2969 
L 2906 4863 
L 3481 4863 
L 3481 0 
L 2906 0 
L 2906 525 
Q 2725 213 2448 61 
Q 2172 -91 1784 -91 
Q 1150 -91 751 415 
Q 353 922 353 1747 
Q 353 2572 751 3078 
Q 1150 3584 1784 3584 
Q 2172 3584 2448 3432 
Q 2725 3281 2906 2969 
z
M 947 1747 
Q 947 1113 1208 752 
Q 1469 391 1925 391 
Q 2381 391 2643 752 
Q 2906 1113 2906 1747 
Q 2906 2381 2643 2742 
Q 2381 3103 1925 3103 
Q 1469 3103 1208 2742 
Q 947 2381 947 1747 
z
" transform="scale(0.015625)"/>
      <path id="DejaVuSans-6e" d="M 3513 2113 
L 3513 0 
L 2938 0 
L 2938 2094 
Q 2938 2591 2744 2837 
Q 2550 3084 2163 3084 
Q 1697 3084 1428 2787 
Q 1159 2491 1159 1978 
L 1159 0 
L 581 0 
L 581 3500 
L 1159 3500 
L 1159 2956 
Q 1366 3272 1645 3428 
Q 1925 3584 2291 3584 
Q 2894 3584 3203 3211 
Q 3513 2838 3513 2113 
z
" transform="scale(0.015625)"/>
      <path id="DejaVuSans-67" d="M 2906 1791 
Q 2906 2416 2648 2759 
Q 2391 3103 1925 3103 
Q 1463 3103 1205 2759 
Q 947 2416 947 1791 
Q 947 1169 1205 825 
Q 1463 481 1925 481 
Q 2391 481 2648 825 
Q 2906 1169 2906 1791 
z
M 3481 434 
Q 3481 -459 3084 -895 
Q 2688 -1331 1869 -1331 
Q 1566 -1331 1297 -1286 
Q 1028 -1241 775 -1147 
L 775 -588 
Q 1028 -725 1275 -790 
Q 1522 -856 1778 -856 
Q 2344 -856 2625 -561 
Q 2906 -266 2906 331 
L 2906 616 
Q 2728 306 2450 153 
Q 2172 0 1784 0 
Q 1141 0 747 490 
Q 353 981 353 1791 
Q 353 2603 747 3093 
Q 1141 3584 1784 3584 
Q 2172 3584 2450 3431 
Q 2728 3278 2906 2969 
L 2906 3500 
L 3481 3500 
L 3481 434 
z
" transform="scale(0.015625)"/>
      <path id="DejaVuSans-ea" d="M 3597 1894 
L 3597 1613 
L 953 1613 
Q 991 1019 1311 708 
Q 1631 397 2203 397 
Q 2534 397 2845 478 
Q 3156 559 3463 722 
L 3463 178 
Q 3153 47 2828 -22 
Q 2503 -91 2169 -91 
Q 1331 -91 842 396 
Q 353 884 353 1716 
Q 353 2575 817 3079 
Q 1281 3584 2069 3584 
Q 2775 3584 3186 3129 
Q 3597 2675 3597 1894 
z
M 3022 2063 
Q 3016 2534 2758 2815 
Q 2500 3097 2075 3097 
Q 1594 3097 1305 2825 
Q 1016 2553 972 2059 
L 3022 2063 
z
M 1801 5119 
L 2263 5119 
L 3029 3944 
L 2595 3944 
L 2032 4709 
L 1470 3944 
L 1035 3944 
L 1801 5119 
z
" transform="scale(0.015625)"/>
      <path id="DejaVuSans-65" d="M 3597 1894 
L 3597 1613 
L 953 1613 
Q 991 1019 1311 708 
Q 1631 397 2203 397 
Q 2534 397 2845 478 
Q 3156 559 3463 722 
L 3463 178 
Q 3153 47 2828 -22 
Q 2503 -91 2169 -91 
Q 1331 -91 842 396 
Q 353 884 353 1716 
Q 353 2575 817 3079 
Q 1281 3584 2069 3584 
Q 2775 3584 3186 3129 
Q 3597 2675 3597 1894 
z
M 3022 2063 
Q 3016 2534 2758 2815 
Q 2500 3097 2075 3097 
Q 1594 3097 1305 2825 
Q 1016 2553 972 2059 
L 3022 2063 
z
" transform="scale(0.015625)"/>
      <path id="DejaVuSans-3a" d="M 750 794 
L 1409 794 
L 1409 0 
L 750 0 
L 750 794 
z
M 750 3309 
L 1409 3309 
L 1409 2516 
L 750 2516 
L 750 3309 
z
" transform="scale(0.015625)"/>
      <path id="DejaVuSans-44" d="M 1259 4147 
L 1259 519 
L 2022 519 
Q 2988 519 3436 956 
Q 3884 1394 3884 2338 
Q 3884 3275 3436 3711 
Q 2988 4147 2022 4147 
L 1259 4147 
z
M 628 4666 
L 1925 4666 
Q 3281 4666 3915 4102 
Q 4550 3538 4550 2338 
Q 4550 1131 3912 565 
Q 3275 0 1925 0 
L 628 0 
L 628 4666 
z
" transform="scale(0.015625)"/>
      <path id="DejaVuSans-6d" d="M 3328 2828 
Q 3544 3216 3844 3400 
Q 4144 3584 4550 3584 
Q 5097 3584 5394 3201 
Q 5691 2819 5691 2113 
L 5691 0 
L 5113 0 
L 5113 2094 
Q 5113 2597 4934 2840 
Q 4756 3084 4391 3084 
Q 3944 3084 3684 2787 
Q 3425 2491 3425 1978 
L 3425 0 
L 2847 0 
L 2847 2094 
Q 2847 2600 2669 2842 
Q 2491 3084 2119 3084 
Q 1678 3084 1418 2786 
Q 1159 2488 1159 1978 
L 1159 0 
L 581 0 
L 581 3500 
L 1159 3500 
L 1159 2956 
Q 1356 3278 1631 3431 
Q 1906 3584 2284 3584 
Q 2666 3584 2933 3390 
Q 3200 3197 3328 2828 
z
" transform="scale(0.015625)"/>
     </defs>
     <use xlink:href="#DejaVuSans-47"/>
     <use xlink:href="#DejaVuSans-72" transform="translate(77.490234 0)"/>
     <use xlink:href="#DejaVuSans-61" transform="translate(118.603516 0)"/>
     <use xlink:href="#DejaVuSans-66" transform="translate(179.882812 0)"/>
     <use xlink:href="#DejaVuSans-6f" transform="translate(215.087891 0)"/>
     <use xlink:href="#DejaVuSans-20" transform="translate(276.269531 0)"/>
     <use xlink:href="#DejaVuSans-66" transform="translate(308.056641 0)"/>
     <use xlink:href="#DejaVuSans-6f" transform="translate(343.261719 0)"/>
     <use xlink:href="#DejaVuSans-63" transform="translate(404.443359 0)"/>
     <use xlink:href="#DejaVuSans-61" transform="translate(459.423828 0)"/>
     <use xlink:href="#DejaVuSans-64" transform="translate(520.703125 0)"/>
     <use xlink:href="#DejaVuSans-6f" transform="translate(584.179688 0)"/>
     <use xlink:href="#DejaVuSans-20" transform="translate(645.361328 0)"/>
     <use xlink:href="#DejaVuSans-6e" transform="translate(677.148438 0)"/>
     <use xlink:href="#DejaVuSans-6f" transform="translate(740.527344 0)"/>
     <use xlink:href="#DejaVuSans-20" transform="translate(801.708984 0)"/>
     <use xlink:href="#DejaVuSans-67" transform="translate(833.496094 0)"/>
     <use xlink:href="#DejaVuSans-ea" transform="translate(896.972656 0)"/>
     <use xlink:href="#DejaVuSans-6e" transform="translate(958.496094 0)"/>
     <use xlink:href="#DejaVuSans-65" transform="translate(1021.875 0)"/>
     <use xlink:href="#DejaVuSans-72" transform="translate(1083.398438 0)"/>
     <use xlink:href="#DejaVuSans-6f" transform="translate(1122.261719 0)"/>
     <use xlink:href="#DejaVuSans-3a" transform="translate(1183.443359 0)"/>
     <use xlink:href="#DejaVuSans-20" transform="translate(1217.134766 0)"/>
     <use xlink:href="#DejaVuSans-44" transform="translate(1248.921875 0)"/>
     <use xlink:href="#DejaVuSans-72" transform="translate(1325.923828 0)"/>
     <use xlink:href="#DejaVuSans-61" transform="translate(1367.037109 0)"/>
     <use xlink:href="#DejaVuSans-6d" transform="translate(1428.316406 0)"/>
     <use xlink:href="#DejaVuSans-61" transform="translate(1525.728516 0)"/>
    </g>
   </g>
  </g>
 </g>
 <defs>
  <clipPath id="pb2f1a21b46">
   <rect x="0" y="0" width="432" height="360"/>
  </clipPath>
 </defs>
</svg>
